<?xml version="1.0" encoding="UTF-8"?>
<svg width="14px" height="14px" viewBox="0 0 14 14" version="1.1" xmlns="http://www.w3.org/2000/svg" xmlns:xlink="http://www.w3.org/1999/xlink">
    <!-- Generator: Sketch 40.3 (33839) - http://www.bohemiancoding.com/sketch -->
    <title>DUX</title>
    <desc>Created with Sketch.</desc>
    <defs></defs>
    <g id="Page-1" stroke="none" stroke-width="1" fill="none" fill-rule="evenodd">
        <g id="DUX">
            <path d="M6,1 L6,0 L3,0 L3,1 L2,1 L2,4 L3,4 L3,6 L6,6 L6,4 L7,4 L7,1 L6,1 Z" id="Combined-Shape" fill="#8FA173"></path>
            <rect id="Rectangle-3" fill="#78885E" x="6" y="0" width="1" height="1"></rect>
            <rect id="Rectangle-3-Copy-2" fill="#78885E" x="7" y="1" width="1" height="3"></rect>
            <rect id="Rectangle-3-Copy-5" fill="#78885E" x="6" y="4" width="1" height="2"></rect>
            <rect id="Rectangle-4" fill="#4D4D4D" x="3" y="2" width="1" height="1"></rect>
            <polygon id="Combined-Shape" fill="#FFE166" points="2 5 4 5 4 3 2 3 1 3 0.997253418 4 0 4 0 5"></polygon>
            <polygon id="Rectangle-4-Copy-3" fill="#766555" points="2 7 7 7 12 7 12 8 12 13 4 13 4 12 2.99664307 12 2.99664307 11 2 11"></polygon>
            <rect id="Rectangle-5-Copy-5" fill="#84715F" x="2" y="7" width="1" height="4"></rect>
            <rect id="Rectangle-5-Copy" fill="#EBEAEA" x="3" y="6" width="3" height="1"></rect>
            <rect id="Rectangle-5" fill="#FFECA0" x="1" y="3" width="1" height="1"></rect>
            <rect id="Rectangle-5-Copy-6" fill="#84715F" x="3" y="11" width="1" height="1"></rect>
            <path d="M7,10 L8,10 L8,11 L7,11 L7,10 Z M8,11 L11,11 L11,12 L8,12 L8,11 Z M11,10 L12,10 L12,11 L11,11 L11,10 Z M12,9 L13,9 L13,10 L12,10 L12,9 Z" id="Combined-Shape" fill="#B79C84"></path>
            <polygon id="Combined-Shape" fill="#9D8169" points="7 8 7 10 8 10 8 11 11 11 11 10 12 10 12 9 13 9 13 8 11.5096741 8"></polygon>
            <polygon id="Combined-Shape" fill="#84715F" points="14 10.1542969 14 11 13 11 13 12 11 12 11 11 12 11 12 10 13 10 13 8 14 8"></polygon>
            <rect id="Rectangle-5-Copy-7" fill="#84715F" x="4" y="12" width="1" height="1"></rect>
            <rect id="Rectangle-5-Copy-8" fill="#FFE166" x="6" y="13" width="1" height="1"></rect>
            <rect id="Rectangle-5-Copy-9" fill="#FFE166" x="9" y="13" width="1" height="1"></rect>
            <rect id="Rectangle-5-Copy-2" fill="#D4D2D2" x="6" y="6" width="1" height="1"></rect>
            <rect id="Rectangle-4-Copy" fill="#4D4D4D" x="5" y="2" width="1" height="1"></rect>
        </g>
    </g>
</svg>